<svg xmlns="http://www.w3.org/2000/svg" xmlns:xlink="http://www.w3.org/1999/xlink" width="500" zoomAndPan="magnify" viewBox="0 0 375 374.999991" height="500" preserveAspectRatio="xMidYMid meet" version="1.0"><defs><clipPath id="201f53695d"><path d="M 14.761719 2.507812 L 359.910156 2.507812 L 359.910156 372.835938 L 14.761719 372.835938 Z M 14.761719 2.507812 " clip-rule="nonzero"/></clipPath><clipPath id="259634237a"><path d="M 75.425781 103.445312 L 299.101562 103.445312 L 299.101562 270 L 75.425781 270 Z M 75.425781 103.445312 " clip-rule="nonzero"/></clipPath><clipPath id="d660d16909"><path d="M 256 160 L 270.1875 160 L 270.1875 174 L 256 174 Z M 256 160 " clip-rule="nonzero"/></clipPath><clipPath id="1309f4d856"><path d="M 160 103.671875 L 174 103.671875 L 174 118 L 160 118 Z M 160 103.671875 " clip-rule="nonzero"/></clipPath><clipPath id="5088d1fb3e"><path d="M 104.28125 201 L 118 201 L 118 215 L 104.28125 215 Z M 104.28125 201 " clip-rule="nonzero"/></clipPath><clipPath id="424dccd423"><path d="M 200 257 L 215 257 L 215 271.0625 L 200 271.0625 Z M 200 257 " clip-rule="nonzero"/></clipPath></defs><g clip-path="url(#201f53695d)"><path fill="#710000" d="M 42.082031 199.21875 C 36.355469 192.492188 33.320312 184.222656 33.320312 175.328125 C 33.320312 165.054688 37.605469 155.21875 45.066406 148.324219 C 46.726562 146.804688 47.425781 144.492188 46.871094 142.296875 C 46.050781 139.019531 45.644531 135.59375 45.644531 132.121094 C 45.644531 110.183594 61.957031 91.761719 83.617188 89.230469 C 85.832031 88.988281 87.757812 87.542969 88.597656 85.492188 C 89.464844 83.421875 89.128906 81.058594 87.757812 79.296875 C 84.433594 75.078125 82.605469 69.726562 82.605469 64.230469 C 82.605469 48.484375 97.648438 36.1875 113.625 40.382812 C 116.777344 41.203125 120.074219 39.417969 121.0625 36.285156 C 125.152344 23.484375 136.945312 14.851562 150.371094 14.851562 C 167.363281 14.851562 181.175781 28.691406 181.175781 45.710938 C 181.175781 49.113281 183.941406 51.882812 187.335938 51.882812 C 190.730469 51.882812 193.496094 49.113281 193.496094 45.710938 C 193.496094 28.691406 207.308594 14.851562 224.300781 14.851562 C 237.726562 14.851562 249.519531 23.484375 253.609375 36.285156 C 254.597656 39.417969 257.894531 41.226562 261.046875 40.382812 C 277.023438 36.1875 292.066406 48.484375 292.066406 64.230469 C 292.066406 69.726562 290.238281 75.078125 286.914062 79.296875 C 285.542969 81.058594 285.207031 83.421875 286.074219 85.492188 C 286.914062 87.542969 288.839844 88.988281 291.054688 89.230469 C 312.6875 91.761719 329.027344 110.183594 329.027344 132.121094 C 329.027344 135.59375 328.621094 139.019531 327.800781 142.296875 C 327.25 144.492188 327.945312 146.804688 329.605469 148.324219 C 337.066406 155.21875 341.351562 165.054688 341.351562 175.328125 C 341.351562 184.222656 338.316406 192.492188 332.589844 199.21875 C 331.507812 200.496094 330.976562 202.160156 331.148438 203.824219 C 331.316406 205.511719 332.15625 207.054688 333.480469 208.070312 C 342.386719 215.085938 347.511719 225.644531 347.511719 237.046875 C 347.511719 253.371094 336.632812 267.980469 321.085938 272.539062 C 318.320312 273.359375 316.492188 275.960938 316.660156 278.855469 C 318.273438 304.917969 299.695312 318.589844 283.28125 322.375 C 280.996094 322.902344 279.191406 324.710938 278.660156 327.003906 C 274.113281 346.722656 256.835938 360.492188 236.621094 360.492188 C 212.84375 360.492188 193.496094 341.105469 193.496094 317.285156 C 193.496094 313.886719 190.730469 311.113281 187.335938 311.113281 C 183.941406 311.113281 181.175781 313.886719 181.175781 317.285156 C 181.175781 341.105469 161.828125 360.492188 138.050781 360.492188 C 117.835938 360.492188 100.558594 346.722656 96.011719 327.003906 C 95.480469 324.710938 93.675781 322.902344 91.390625 322.375 C 74.976562 318.589844 56.398438 304.917969 58.011719 278.855469 C 58.203125 275.960938 56.351562 273.359375 53.609375 272.539062 C 38.039062 267.980469 27.160156 253.371094 27.160156 237.046875 C 27.160156 225.644531 32.289062 215.085938 41.191406 208.070312 C 42.515625 207.054688 43.355469 205.511719 43.523438 203.824219 C 43.695312 202.160156 43.164062 200.496094 42.082031 199.21875 Z M 45.59375 282.808594 C 45.980469 310.003906 64.703125 327.363281 84.964844 333.441406 C 92.015625 356.828125 113.335938 372.835938 138.050781 372.835938 C 159.46875 372.835938 178.121094 360.585938 187.335938 342.722656 C 196.554688 360.585938 215.203125 372.835938 236.621094 372.835938 C 261.335938 372.835938 282.65625 356.828125 289.707031 333.441406 C 309.96875 327.363281 328.691406 310.003906 329.078125 282.808594 C 347.390625 275.382812 359.832031 257.203125 359.832031 237.046875 C 359.832031 223.859375 354.707031 211.515625 345.609375 202.378906 C 350.832031 194.398438 353.671875 184.996094 353.671875 175.328125 C 353.671875 162.8125 348.90625 150.808594 340.484375 141.789062 C 341.0625 138.609375 341.351562 135.378906 341.351562 132.121094 C 341.351562 107.023438 324.699219 85.492188 301.425781 78.765625 C 303.351562 74.210938 304.386719 69.269531 304.386719 64.230469 C 304.386719 43.808594 287.804688 27.195312 267.421875 27.195312 C 266.050781 27.195312 264.703125 27.269531 263.355469 27.414062 C 256.355469 12.320312 241.289062 2.507812 224.300781 2.507812 C 208.632812 2.507812 194.890625 10.921875 187.335938 23.484375 C 179.78125 10.921875 166.039062 2.507812 150.371094 2.507812 C 133.382812 2.507812 118.320312 12.320312 111.316406 27.414062 C 109.96875 27.269531 108.621094 27.195312 107.25 27.195312 C 86.867188 27.195312 70.285156 43.808594 70.285156 64.230469 C 70.285156 69.269531 71.320312 74.210938 73.246094 78.765625 C 49.949219 85.492188 33.320312 107.023438 33.320312 132.121094 C 33.320312 135.378906 33.609375 138.609375 34.164062 141.789062 C 25.765625 150.808594 21 162.8125 21 175.328125 C 21 184.996094 23.839844 194.398438 29.0625 202.378906 C 19.964844 211.515625 14.839844 223.859375 14.839844 237.046875 C 14.839844 257.203125 27.28125 275.382812 45.59375 282.808594 " fill-opacity="1" fill-rule="nonzero"/></g><path fill="#710000" d="M 94.925781 156.8125 C 94.925781 139.789062 108.742188 125.949219 125.730469 125.949219 L 248.941406 125.949219 C 265.929688 125.949219 279.746094 139.789062 279.746094 156.8125 L 279.746094 218.53125 C 279.746094 235.554688 265.929688 249.394531 248.941406 249.394531 L 125.730469 249.394531 C 108.742188 249.394531 94.925781 235.554688 94.925781 218.53125 Z M 125.730469 261.738281 L 248.941406 261.738281 C 272.71875 261.738281 292.066406 242.351562 292.066406 218.53125 L 292.066406 156.8125 C 292.066406 132.988281 272.71875 113.605469 248.941406 113.605469 L 125.730469 113.605469 C 101.953125 113.605469 82.605469 132.988281 82.605469 156.8125 L 82.605469 218.53125 C 82.605469 242.351562 101.953125 261.738281 125.730469 261.738281 " fill-opacity="1" fill-rule="nonzero"/><path fill="#710000" d="M 146.015625 222.894531 C 147.21875 224.101562 148.785156 224.703125 150.371094 224.703125 C 151.960938 224.703125 153.523438 224.101562 154.726562 222.894531 C 157.136719 220.484375 157.136719 216.578125 154.726562 214.167969 L 128.28125 187.671875 L 154.726562 161.175781 C 157.136719 158.761719 157.136719 154.859375 154.726562 152.445312 C 152.320312 150.035156 148.421875 150.035156 146.015625 152.445312 L 115.214844 183.308594 C 112.808594 185.71875 112.808594 189.625 115.214844 192.035156 L 146.015625 222.894531 " fill-opacity="1" fill-rule="nonzero"/><path fill="#710000" d="M 219.945312 222.894531 C 221.148438 224.101562 222.710938 224.703125 224.300781 224.703125 C 225.886719 224.703125 227.453125 224.101562 228.65625 222.894531 L 259.457031 192.035156 C 261.863281 189.625 261.863281 185.71875 259.457031 183.308594 L 228.65625 152.445312 C 226.25 150.035156 222.351562 150.035156 219.945312 152.445312 C 217.539062 154.859375 217.539062 158.761719 219.945312 161.175781 L 246.390625 187.671875 L 219.945312 214.167969 C 217.539062 216.578125 217.539062 220.484375 219.945312 222.894531 " fill-opacity="1" fill-rule="nonzero"/><path fill="#710000" d="M 173.332031 236.808594 C 173.882812 236.976562 174.460938 237.046875 175.015625 237.046875 C 177.6875 237.046875 180.164062 235.289062 180.933594 232.5625 L 205.578125 146.152344 C 206.515625 142.875 204.613281 139.476562 201.339844 138.535156 C 198.117188 137.621094 194.675781 139.5 193.738281 142.777344 L 169.09375 229.1875 C 168.15625 232.46875 170.058594 235.867188 173.332031 236.808594 " fill-opacity="1" fill-rule="nonzero"/><path fill="#710000" d="M 150.371094 286.425781 C 140.53125 286.425781 131.457031 289.148438 123.226562 294.214844 C 112.132812 286.617188 101.785156 286.425781 101.089844 286.425781 C 97.71875 286.425781 95 289.148438 94.953125 292.550781 C 94.925781 295.925781 97.648438 298.699219 101.039062 298.769531 C 101.882812 298.792969 121.832031 299.445312 132.324219 325.75 C 133.285156 328.160156 135.597656 329.628906 138.050781 329.628906 C 138.820312 329.628906 139.589844 329.484375 140.335938 329.195312 C 143.488281 327.917969 145.03125 324.328125 143.777344 321.167969 C 140.699219 313.453125 136.871094 307.523438 132.855469 302.84375 C 138.242188 300.167969 144.117188 298.769531 150.371094 298.769531 C 153.765625 298.769531 156.53125 295.996094 156.53125 292.597656 C 156.53125 289.199219 153.765625 286.425781 150.371094 286.425781 " fill-opacity="1" fill-rule="nonzero"/><path fill="#710000" d="M 125.683594 70.402344 C 126.308594 70.425781 141.179688 70.8125 151.40625 86.167969 C 152.585938 87.953125 154.535156 88.917969 156.53125 88.917969 C 157.710938 88.917969 158.890625 88.578125 159.949219 87.878906 C 162.789062 86 163.558594 82.167969 161.660156 79.320312 C 147.675781 58.296875 126.621094 58.054688 125.730469 58.054688 C 122.335938 58.054688 119.617188 60.804688 119.59375 64.179688 C 119.570312 67.578125 122.3125 70.351562 125.683594 70.402344 " fill-opacity="1" fill-rule="nonzero"/><path fill="#710000" d="M 273.582031 286.425781 C 272.886719 286.425781 262.539062 286.617188 251.445312 294.214844 C 243.214844 289.148438 234.140625 286.425781 224.300781 286.425781 C 220.90625 286.425781 218.140625 289.199219 218.140625 292.597656 C 218.140625 295.996094 220.90625 298.769531 224.300781 298.769531 C 230.554688 298.769531 236.429688 300.167969 241.820312 302.84375 C 237.800781 307.523438 233.972656 313.453125 230.894531 321.167969 C 229.640625 324.328125 231.183594 327.917969 234.335938 329.195312 C 235.082031 329.484375 235.851562 329.628906 236.621094 329.628906 C 239.074219 329.628906 241.386719 328.160156 242.347656 325.75 C 252.816406 299.515625 272.667969 298.792969 273.632812 298.769531 C 277 298.746094 279.746094 295.996094 279.746094 292.597656 C 279.746094 289.199219 276.976562 286.425781 273.582031 286.425781 " fill-opacity="1" fill-rule="nonzero"/><path fill="#710000" d="M 218.140625 88.917969 C 220.136719 88.917969 222.085938 87.953125 223.265625 86.167969 C 233.445312 70.882812 248.242188 70.425781 248.988281 70.402344 C 252.359375 70.375 255.101562 67.628906 255.101562 64.230469 C 255.101562 60.828125 252.335938 58.054688 248.941406 58.054688 C 248.050781 58.054688 226.996094 58.296875 213.011719 79.320312 C 211.113281 82.167969 211.882812 86 214.722656 87.878906 C 215.78125 88.578125 216.960938 88.917969 218.140625 88.917969 " fill-opacity="1" fill-rule="nonzero"/><g clip-path="url(#259634237a)"><path fill="#ffffff" d="M 75.425781 234.566406 L 75.425781 139.710938 C 75.425781 120.183594 92.199219 103.445312 111.773438 103.445312 L 261.824219 103.445312 C 282.328125 103.445312 299.101562 120.183594 299.101562 139.710938 L 299.101562 233.632812 C 299.101562 254.09375 282.328125 269.902344 262.753906 269.902344 L 111.773438 269.902344 C 92.199219 270.832031 75.425781 254.09375 75.425781 234.566406 Z M 75.425781 234.566406 " fill-opacity="1" fill-rule="nonzero"/></g><path fill="#710000" d="M 185.230469 224.039062 C 175.046875 224.039062 157.542969 223.316406 154.730469 218.472656 C 152.292969 214.273438 151.339844 198.171875 151.265625 185.660156 C 151.214844 177.34375 151.488281 157.65625 155.046875 154.441406 C 158.910156 150.949219 182.707031 150.769531 187.4375 150.769531 C 193.84375 150.769531 215.0625 151.03125 219.085938 154.398438 C 222.921875 157.605469 223.285156 175.679688 223.164062 186.171875 C 223.042969 196.34375 222.113281 214.621094 219.382812 218.582031 C 215.71875 223.886719 188.339844 224.039062 185.230469 224.039062 Z M 187.4375 154.015625 C 168.753906 154.015625 158.519531 155.671875 157.21875 156.847656 C 156.105469 157.890625 154.390625 166.652344 154.507812 185.710938 C 154.597656 200.644531 155.898438 214.027344 157.53125 216.839844 C 158.417969 218.371094 166.722656 220.792969 185.230469 220.792969 C 203.699219 220.792969 215.570312 218.394531 216.714844 216.734375 C 218.140625 214.667969 219.730469 202.65625 219.925781 186.132812 C 220.152344 166.792969 218.257812 157.929688 217.011719 156.890625 C 215.34375 155.496094 204.414062 154.015625 187.4375 154.015625 Z M 187.4375 154.015625 " fill-opacity="1" fill-rule="nonzero"/><path fill="#710000" d="M 241.621094 199.964844 L 221.5625 199.964844 C 220.667969 199.964844 219.941406 199.238281 219.941406 198.34375 C 219.941406 197.445312 220.667969 196.71875 221.5625 196.71875 L 241.621094 196.71875 C 242.515625 196.71875 243.242188 197.445312 243.242188 198.34375 C 243.242188 199.238281 242.515625 199.964844 241.621094 199.964844 Z M 241.621094 199.964844 " fill-opacity="1" fill-rule="nonzero"/><path fill="#710000" d="M 241.621094 168.007812 L 221.5625 168.007812 C 220.667969 168.007812 219.941406 167.285156 219.941406 166.386719 C 219.941406 165.492188 220.667969 164.761719 221.5625 164.761719 L 241.621094 164.761719 C 242.515625 164.761719 243.242188 165.488281 243.242188 166.386719 C 243.242188 167.285156 242.515625 168.007812 241.621094 168.007812 Z M 241.621094 168.007812 " fill-opacity="1" fill-rule="nonzero"/><path fill="#710000" d="M 233.867188 178.832031 L 222.71875 178.832031 C 221.824219 178.832031 221.097656 178.105469 221.097656 177.210938 C 221.097656 176.3125 221.824219 175.585938 222.71875 175.585938 L 233.867188 175.585938 C 234.761719 175.585938 235.488281 176.3125 235.488281 177.210938 C 235.488281 178.105469 234.761719 178.832031 233.867188 178.832031 Z M 233.867188 178.832031 " fill-opacity="1" fill-rule="nonzero"/><path fill="#710000" d="M 243.90625 190.292969 L 221.5625 190.292969 C 220.667969 190.292969 219.941406 189.566406 219.941406 188.671875 C 219.941406 187.773438 220.667969 187.050781 221.5625 187.050781 L 242.578125 187.050781 L 259.230469 170.640625 C 259.867188 170.011719 260.894531 170.019531 261.519531 170.660156 C 262.148438 171.300781 262.140625 172.324219 261.5 172.953125 Z M 243.90625 190.292969 " fill-opacity="1" fill-rule="nonzero"/><path fill="#710000" d="M 246.710938 209.371094 L 221.5625 209.371094 C 220.667969 209.371094 219.941406 208.648438 219.941406 207.75 C 219.941406 206.855469 220.667969 206.128906 221.5625 206.128906 L 246.710938 206.128906 C 247.605469 206.128906 248.332031 206.851562 248.332031 207.75 C 248.332031 208.648438 247.605469 209.371094 246.710938 209.371094 Z M 246.710938 209.371094 " fill-opacity="1" fill-rule="nonzero"/><path fill="#710000" d="M 251.804688 214.472656 C 248.101562 214.472656 245.09375 211.457031 245.09375 207.75 C 245.09375 204.046875 248.101562 201.027344 251.804688 201.027344 C 255.503906 201.027344 258.515625 204.046875 258.515625 207.75 C 258.515625 211.457031 255.503906 214.472656 251.804688 214.472656 Z M 251.804688 204.273438 C 249.890625 204.273438 248.332031 205.832031 248.332031 207.75 C 248.332031 209.667969 249.890625 211.226562 251.804688 211.226562 C 253.71875 211.226562 255.273438 209.667969 255.273438 207.75 C 255.273438 205.832031 253.71875 204.273438 251.804688 204.273438 Z M 251.804688 204.273438 " fill-opacity="1" fill-rule="nonzero"/><g clip-path="url(#d660d16909)"><path fill="#710000" d="M 263.410156 173.527344 C 259.710938 173.527344 256.699219 170.511719 256.699219 166.804688 C 256.699219 163.097656 259.710938 160.085938 263.410156 160.085938 C 267.113281 160.085938 270.125 163.097656 270.125 166.804688 C 270.125 170.511719 267.113281 173.527344 263.410156 173.527344 Z M 263.410156 163.328125 C 261.496094 163.328125 259.941406 164.890625 259.941406 166.804688 C 259.941406 168.722656 261.496094 170.28125 263.410156 170.28125 C 265.324219 170.28125 266.882812 168.722656 266.882812 166.804688 C 266.882812 164.886719 265.324219 163.328125 263.410156 163.328125 Z M 263.410156 163.328125 " fill-opacity="1" fill-rule="nonzero"/></g><path fill="#710000" d="M 198.269531 153.957031 C 197.375 153.957031 196.648438 153.230469 196.648438 152.335938 L 196.648438 132.246094 C 196.648438 131.347656 197.375 130.621094 198.269531 130.621094 C 199.164062 130.621094 199.886719 131.347656 199.886719 132.246094 L 199.886719 152.335938 C 199.886719 153.230469 199.164062 153.957031 198.269531 153.957031 Z M 198.269531 153.957031 " fill-opacity="1" fill-rule="nonzero"/><path fill="#710000" d="M 166.363281 153.957031 C 165.46875 153.957031 164.742188 153.230469 164.742188 152.335938 L 164.742188 132.246094 C 164.742188 131.347656 165.46875 130.621094 166.363281 130.621094 C 167.257812 130.621094 167.984375 131.347656 167.984375 132.246094 L 167.984375 152.335938 C 167.980469 153.230469 167.257812 153.957031 166.363281 153.957031 Z M 166.363281 153.957031 " fill-opacity="1" fill-rule="nonzero"/><path fill="#710000" d="M 177.167969 152.800781 C 176.273438 152.800781 175.550781 152.074219 175.550781 151.175781 L 175.550781 140.011719 C 175.550781 139.117188 176.273438 138.390625 177.167969 138.390625 C 178.0625 138.390625 178.789062 139.117188 178.789062 140.011719 L 178.789062 151.175781 C 178.789062 152.074219 178.0625 152.800781 177.167969 152.800781 Z M 177.167969 152.800781 " fill-opacity="1" fill-rule="nonzero"/><path fill="#710000" d="M 188.613281 153.957031 C 187.71875 153.957031 186.992188 153.230469 186.992188 152.335938 L 186.992188 131.285156 L 170.609375 114.609375 C 169.984375 113.96875 169.992188 112.945312 170.628906 112.316406 C 171.265625 111.6875 172.292969 111.695312 172.921875 112.332031 L 190.234375 129.957031 L 190.234375 152.335938 C 190.234375 153.230469 189.507812 153.957031 188.613281 153.957031 Z M 188.613281 153.957031 " fill-opacity="1" fill-rule="nonzero"/><path fill="#710000" d="M 207.660156 153.957031 C 206.769531 153.957031 206.042969 153.230469 206.042969 152.335938 L 206.042969 127.144531 C 206.042969 126.25 206.769531 125.523438 207.660156 125.523438 C 208.558594 125.523438 209.28125 126.25 209.28125 127.144531 L 209.28125 152.335938 C 209.28125 153.230469 208.558594 153.957031 207.660156 153.957031 Z M 207.660156 153.957031 " fill-opacity="1" fill-rule="nonzero"/><path fill="#710000" d="M 207.660156 128.769531 C 203.960938 128.769531 200.953125 125.753906 200.953125 122.046875 C 200.953125 118.339844 203.960938 115.328125 207.660156 115.328125 C 211.363281 115.328125 214.375 118.339844 214.375 122.046875 C 214.371094 125.753906 211.363281 128.769531 207.660156 128.769531 Z M 207.660156 118.570312 C 205.75 118.570312 204.191406 120.128906 204.191406 122.046875 C 204.191406 123.964844 205.746094 125.523438 207.660156 125.523438 C 209.578125 125.523438 211.132812 123.964844 211.132812 122.046875 C 211.132812 120.128906 209.578125 118.570312 207.660156 118.570312 Z M 207.660156 118.570312 " fill-opacity="1" fill-rule="nonzero"/><g clip-path="url(#1309f4d856)"><path fill="#710000" d="M 166.78125 117.140625 C 163.078125 117.140625 160.070312 114.125 160.070312 110.421875 C 160.070312 106.714844 163.078125 103.699219 166.78125 103.699219 C 170.480469 103.699219 173.492188 106.714844 173.492188 110.421875 C 173.492188 114.125 170.480469 117.140625 166.78125 117.140625 Z M 166.78125 106.945312 C 164.867188 106.945312 163.308594 108.503906 163.308594 110.421875 C 163.308594 112.335938 164.867188 113.898438 166.78125 113.898438 C 168.695312 113.898438 170.25 112.335938 170.25 110.421875 C 170.25 108.503906 168.695312 106.945312 166.78125 106.945312 Z M 166.78125 106.945312 " fill-opacity="1" fill-rule="nonzero"/></g><path fill="#710000" d="M 152.910156 178.078125 L 132.851562 178.078125 C 131.957031 178.078125 131.230469 177.351562 131.230469 176.457031 C 131.230469 175.558594 131.957031 174.832031 132.851562 174.832031 L 152.910156 174.832031 C 153.804688 174.832031 154.53125 175.558594 154.53125 176.457031 C 154.53125 177.351562 153.804688 178.078125 152.910156 178.078125 Z M 152.910156 178.078125 " fill-opacity="1" fill-rule="nonzero"/><path fill="#710000" d="M 152.910156 210.035156 L 132.851562 210.035156 C 131.957031 210.035156 131.230469 209.308594 131.230469 208.410156 C 131.230469 207.515625 131.957031 206.789062 132.851562 206.789062 L 152.910156 206.789062 C 153.804688 206.789062 154.53125 207.515625 154.53125 208.410156 C 154.53125 209.308594 153.804688 210.035156 152.910156 210.035156 Z M 152.910156 210.035156 " fill-opacity="1" fill-rule="nonzero"/><path fill="#710000" d="M 151.753906 199.210938 L 140.605469 199.210938 C 139.710938 199.210938 138.984375 198.484375 138.984375 197.589844 C 138.984375 196.691406 139.710938 195.964844 140.605469 195.964844 L 151.753906 195.964844 C 152.648438 195.964844 153.371094 196.691406 153.371094 197.589844 C 153.371094 198.484375 152.648438 199.210938 151.753906 199.210938 Z M 151.753906 199.210938 " fill-opacity="1" fill-rule="nonzero"/><path fill="#710000" d="M 114.105469 204.621094 C 113.6875 204.621094 113.269531 204.460938 112.949219 204.136719 C 112.324219 203.5 112.332031 202.472656 112.96875 201.84375 L 130.566406 184.503906 L 152.910156 184.503906 C 153.804688 184.503906 154.53125 185.230469 154.53125 186.128906 C 154.53125 187.023438 153.804688 187.75 152.910156 187.75 L 131.894531 187.75 L 115.242188 204.15625 C 114.925781 204.46875 114.515625 204.621094 114.105469 204.621094 Z M 114.105469 204.621094 " fill-opacity="1" fill-rule="nonzero"/><path fill="#710000" d="M 152.910156 168.671875 L 127.757812 168.671875 C 126.863281 168.671875 126.140625 167.945312 126.140625 167.046875 C 126.140625 166.152344 126.863281 165.425781 127.757812 165.425781 L 152.910156 165.425781 C 153.804688 165.425781 154.53125 166.152344 154.53125 167.046875 C 154.53125 167.945312 153.804688 168.671875 152.910156 168.671875 Z M 152.910156 168.671875 " fill-opacity="1" fill-rule="nonzero"/><path fill="#710000" d="M 122.667969 173.769531 C 118.96875 173.769531 115.957031 170.753906 115.957031 167.050781 C 115.957031 163.34375 118.96875 160.328125 122.667969 160.328125 C 126.367188 160.328125 129.378906 163.34375 129.378906 167.050781 C 129.378906 170.753906 126.367188 173.769531 122.667969 173.769531 Z M 122.667969 163.570312 C 120.753906 163.570312 119.195312 165.132812 119.195312 167.050781 C 119.195312 168.964844 120.753906 170.523438 122.667969 170.523438 C 124.582031 170.523438 126.140625 168.964844 126.140625 167.050781 C 126.140625 165.132812 124.582031 163.570312 122.667969 163.570312 Z M 122.667969 163.570312 " fill-opacity="1" fill-rule="nonzero"/><g clip-path="url(#5088d1fb3e)"><path fill="#710000" d="M 111.058594 214.714844 C 107.359375 214.714844 104.347656 211.699219 104.347656 207.992188 C 104.347656 204.289062 107.359375 201.273438 111.058594 201.273438 C 114.761719 201.273438 117.769531 204.289062 117.769531 207.992188 C 117.769531 211.699219 114.761719 214.714844 111.058594 214.714844 Z M 111.058594 204.515625 C 109.144531 204.515625 107.589844 206.078125 107.589844 207.992188 C 107.589844 209.910156 109.144531 211.46875 111.058594 211.46875 C 112.972656 211.46875 114.53125 209.910156 114.53125 207.992188 C 114.53125 206.078125 112.972656 204.515625 111.058594 204.515625 Z M 111.058594 204.515625 " fill-opacity="1" fill-rule="nonzero"/></g><path fill="#710000" d="M 176.203125 244.175781 C 175.308594 244.175781 174.582031 243.449219 174.582031 242.554688 L 174.582031 222.464844 C 174.582031 221.566406 175.308594 220.839844 176.203125 220.839844 C 177.097656 220.839844 177.824219 221.566406 177.824219 222.464844 L 177.824219 242.554688 C 177.824219 243.449219 177.097656 244.175781 176.203125 244.175781 Z M 176.203125 244.175781 " fill-opacity="1" fill-rule="nonzero"/><path fill="#710000" d="M 208.109375 244.175781 C 207.214844 244.175781 206.488281 243.449219 206.488281 242.554688 L 206.488281 222.464844 C 206.488281 221.566406 207.214844 220.839844 208.109375 220.839844 C 209.003906 220.839844 209.726562 221.566406 209.726562 222.464844 L 209.726562 242.554688 C 209.730469 243.449219 209.003906 244.175781 208.109375 244.175781 Z M 208.109375 244.175781 " fill-opacity="1" fill-rule="nonzero"/><path fill="#710000" d="M 197.300781 236.410156 C 196.40625 236.410156 195.683594 235.683594 195.683594 234.785156 L 195.683594 223.621094 C 195.683594 222.726562 196.40625 222 197.300781 222 C 198.195312 222 198.921875 222.726562 198.921875 223.621094 L 198.921875 234.785156 C 198.921875 235.683594 198.195312 236.410156 197.300781 236.410156 Z M 197.300781 236.410156 " fill-opacity="1" fill-rule="nonzero"/><path fill="#710000" d="M 202.707031 262.949219 C 202.285156 262.949219 201.867188 262.789062 201.550781 262.464844 L 184.238281 244.839844 L 184.238281 222.464844 C 184.238281 221.566406 184.960938 220.839844 185.859375 220.839844 C 186.753906 220.839844 187.476562 221.566406 187.476562 222.464844 L 187.476562 243.511719 L 203.859375 260.1875 C 204.488281 260.828125 204.480469 261.855469 203.839844 262.484375 C 203.527344 262.792969 203.117188 262.949219 202.707031 262.949219 Z M 202.707031 262.949219 " fill-opacity="1" fill-rule="nonzero"/><path fill="#710000" d="M 166.808594 249.273438 C 165.914062 249.273438 165.1875 248.550781 165.1875 247.652344 L 165.1875 222.464844 C 165.1875 221.566406 165.914062 220.839844 166.808594 220.839844 C 167.703125 220.839844 168.429688 221.566406 168.429688 222.464844 L 168.429688 247.652344 C 168.429688 248.550781 167.703125 249.273438 166.808594 249.273438 Z M 166.808594 249.273438 " fill-opacity="1" fill-rule="nonzero"/><path fill="#710000" d="M 166.808594 259.472656 C 163.109375 259.472656 160.097656 256.457031 160.097656 252.75 C 160.097656 249.046875 163.109375 246.03125 166.808594 246.03125 C 170.507812 246.03125 173.519531 249.046875 173.519531 252.75 C 173.519531 256.457031 170.507812 259.472656 166.808594 259.472656 Z M 166.808594 249.273438 C 164.894531 249.273438 163.339844 250.835938 163.339844 252.75 C 163.339844 254.667969 164.894531 256.230469 166.808594 256.230469 C 168.722656 256.230469 170.28125 254.667969 170.28125 252.75 C 170.28125 250.835938 168.722656 249.273438 166.808594 249.273438 Z M 166.808594 249.273438 " fill-opacity="1" fill-rule="nonzero"/><g clip-path="url(#424dccd423)"><path fill="#710000" d="M 207.691406 271.097656 C 203.992188 271.097656 200.980469 268.085938 200.980469 264.378906 C 200.980469 260.671875 203.992188 257.65625 207.691406 257.65625 C 211.390625 257.65625 214.402344 260.671875 214.402344 264.378906 C 214.402344 268.085938 211.390625 271.097656 207.691406 271.097656 Z M 207.691406 260.902344 C 205.777344 260.902344 204.21875 262.460938 204.21875 264.378906 C 204.21875 266.296875 205.777344 267.855469 207.691406 267.855469 C 209.605469 267.855469 211.160156 266.296875 211.160156 264.378906 C 211.164062 262.460938 209.605469 260.902344 207.691406 260.902344 Z M 207.691406 260.902344 " fill-opacity="1" fill-rule="nonzero"/></g><path fill="#0267c1" d="M 186.441406 194.101562 C 182.660156 194.101562 179.585938 191.019531 179.585938 187.234375 C 179.585938 183.449219 182.660156 180.367188 186.441406 180.367188 C 190.222656 180.367188 193.300781 183.449219 193.300781 187.234375 C 193.300781 191.019531 190.222656 194.101562 186.441406 194.101562 Z M 186.441406 183.609375 C 184.449219 183.609375 182.824219 185.238281 182.824219 187.234375 C 182.824219 189.230469 184.449219 190.855469 186.441406 190.855469 C 188.4375 190.855469 190.058594 189.230469 190.058594 187.234375 C 190.058594 185.238281 188.4375 183.609375 186.441406 183.609375 Z M 186.441406 183.609375 " fill-opacity="1" fill-rule="nonzero"/><path fill="#0267c1" d="M 187.351562 208.203125 C 186.476562 208.203125 184.332031 208.078125 183.34375 206.941406 C 183.039062 206.597656 182.5 205.976562 182.171875 202.300781 C 181.492188 202.105469 180.824219 201.863281 180.171875 201.578125 C 177.546875 203.675781 176.667969 203.824219 176.273438 203.890625 C 176.140625 203.914062 176.003906 203.925781 175.867188 203.925781 C 174.441406 203.925781 173.082031 202.695312 172.398438 201.964844 C 171.71875 201.238281 170.59375 199.8125 170.683594 198.472656 C 170.722656 197.886719 170.933594 197.070312 172.761719 194.816406 C 172.328125 194.03125 171.960938 193.214844 171.667969 192.367188 C 169.160156 192.042969 168.300781 191.640625 167.839844 191.3125 C 167.007812 190.722656 166.546875 189.609375 166.46875 188.003906 C 166.441406 187.460938 166.371094 184.691406 167.710938 183.519531 C 168.140625 183.144531 168.839844 182.730469 171.5625 182.425781 C 171.851562 181.53125 172.21875 180.664062 172.667969 179.832031 C 171.164062 177.871094 170.851562 176.992188 170.757812 176.441406 C 170.601562 175.503906 170.996094 174.460938 171.933594 173.351562 C 172.71875 172.417969 174.464844 170.839844 176.011719 170.839844 C 176.066406 170.839844 176.117188 170.839844 176.167969 170.84375 C 176.761719 170.882812 177.59375 171.101562 179.917969 173 C 180.664062 172.660156 181.433594 172.375 182.226562 172.15625 C 182.601562 169.011719 183.09375 168.3125 183.320312 167.996094 C 184.132812 166.847656 185.820312 166.609375 187.089844 166.609375 C 187.964844 166.609375 190.109375 166.730469 191.101562 167.867188 C 191.410156 168.222656 191.960938 168.855469 192.289062 172.710938 C 192.851562 172.941406 193.40625 173.203125 193.941406 173.496094 C 196.8125 171.148438 197.78125 170.984375 198.167969 170.917969 C 198.300781 170.894531 198.4375 170.882812 198.578125 170.882812 C 200 170.882812 201.359375 172.113281 202.042969 172.84375 C 202.722656 173.574219 203.847656 174.996094 203.757812 176.335938 C 203.726562 176.804688 203.664062 177.742188 200.792969 181.058594 C 200.964844 181.472656 201.128906 181.902344 201.265625 182.269531 C 203.136719 182.433594 205.589844 182.777344 206.601562 183.5 C 207.433594 184.089844 207.894531 185.203125 207.976562 186.808594 C 208.003906 187.351562 208.070312 190.117188 206.730469 191.289062 C 206.371094 191.605469 205.648438 192.234375 201.148438 192.542969 C 201.007812 192.9375 200.859375 193.328125 200.730469 193.664062 C 201.949219 195.113281 203.472656 197.125 203.683594 198.367188 C 203.84375 199.308594 203.449219 200.347656 202.511719 201.460938 C 201.722656 202.394531 199.976562 203.972656 198.429688 203.972656 C 198.378906 203.972656 198.324219 203.972656 198.273438 203.96875 C 197.8125 203.9375 196.898438 203.875 193.6875 201.109375 C 193.242188 201.34375 192.785156 201.554688 192.316406 201.746094 C 191.945312 205.652344 191.332031 206.515625 191.121094 206.816406 C 190.308594 207.960938 188.621094 208.203125 187.351562 208.203125 Z M 185.8125 204.753906 C 186.097656 204.847656 186.65625 204.957031 187.351562 204.957031 C 187.957031 204.957031 188.347656 204.875 188.53125 204.8125 C 188.726562 204.277344 189.011719 202.65625 189.175781 200.457031 L 189.253906 199.375 L 190.289062 199.035156 C 191.246094 198.722656 192.167969 198.289062 193.023438 197.75 L 194.058594 197.101562 L 194.96875 197.917969 C 196.78125 199.546875 197.972656 200.402344 198.480469 200.675781 C 199.097656 200.382812 200.183594 199.347656 200.441406 198.792969 C 200.160156 198.171875 198.917969 196.492188 197.648438 195.054688 L 196.976562 194.292969 L 197.363281 193.355469 C 197.371094 193.339844 198.101562 191.578125 198.386719 190.554688 L 198.699219 189.421875 L 199.867188 189.367188 C 202.191406 189.25 203.910156 189.011719 204.550781 188.816406 C 204.78125 188.171875 204.816406 186.667969 204.609375 186.09375 C 203.972656 185.855469 201.910156 185.546875 199.992188 185.429688 L 198.90625 185.363281 L 198.558594 184.332031 C 198.378906 183.800781 197.828125 182.257812 197.445312 181.523438 L 196.929688 180.523438 L 197.679688 179.6875 C 199.328125 177.851562 200.195312 176.640625 200.46875 176.128906 C 200.175781 175.511719 199.144531 174.425781 198.59375 174.164062 C 198.152344 174.371094 196.964844 175.152344 195.152344 176.710938 L 194.226562 177.5 L 193.210938 176.835938 C 192.289062 176.234375 191.292969 175.757812 190.253906 175.421875 L 189.207031 175.082031 L 189.136719 173.980469 C 188.988281 171.722656 188.769531 170.527344 188.628906 170.054688 C 188.347656 169.964844 187.785156 169.851562 187.089844 169.851562 C 186.488281 169.851562 186.097656 169.933594 185.914062 169.996094 C 185.78125 170.375 185.527344 171.476562 185.328125 173.613281 L 185.21875 174.820312 L 184.03125 175.054688 C 182.785156 175.300781 181.589844 175.738281 180.476562 176.351562 L 179.492188 176.894531 L 178.640625 176.160156 C 177.058594 174.800781 176.277344 174.308594 175.960938 174.136719 C 175.34375 174.429688 174.269531 175.457031 174.003906 176.011719 C 174.132812 176.273438 174.5625 177.042969 175.882812 178.667969 L 176.621094 179.578125 L 175.992188 180.566406 C 175.253906 181.722656 174.714844 182.984375 174.398438 184.316406 L 174.121094 185.457031 L 172.957031 185.550781 C 171.0625 185.707031 170.222656 185.898438 169.894531 185.996094 C 169.664062 186.644531 169.628906 188.132812 169.835938 188.714844 C 170.179688 188.835938 171.171875 189.070312 173.074219 189.261719 L 174.183594 189.375 L 174.472656 190.457031 C 174.816406 191.742188 175.363281 192.957031 176.097656 194.070312 L 176.773438 195.089844 L 175.980469 196.019531 C 174.636719 197.59375 174.144531 198.367188 173.976562 198.683594 C 174.269531 199.304688 175.296875 200.382812 175.851562 200.644531 C 176.214844 200.472656 177.203125 199.855469 178.910156 198.425781 L 179.742188 197.730469 L 180.699219 198.234375 C 181.746094 198.785156 182.863281 199.179688 184.011719 199.40625 L 185.230469 199.648438 L 185.3125 200.890625 C 185.457031 203.109375 185.675781 204.285156 185.8125 204.753906 Z M 185.8125 204.753906 " fill-opacity="1" fill-rule="nonzero"/></svg>